# xmcd
#
# Track frame offsets: 
#        150
#        16166
#        31290
#        45439
#        60219
#        92203
#        127341
#        153625
#        169894
#        183018
#        216737
#        235993
#
# Disc length: 3417 seconds
#
# Revision: 0
# Processed by: cddbd v1.5.2PL0 Copyright (c) Steve Scherf et al.
# Submitted via: ExactAudioCopy v0.99pb4
#
DISCID=a00d570c
DTITLE=James Brown - James Brown 3 CD Playlist Plus - Disc 3
DYEAR=2008
DGENRE=Soul
TTITLE0=Get Up, Get Into It, Get Involved
TTITLE1=Soul Power
TTITLE2=Hot Pants, Pt. 1 (She Got To Use What She Got To Get What She 
TTITLE2=Wants)
TTITLE3=Make It Funky, Pt. 1
TTITLE4=I'm A Greedy Man, Pts. 1 and 2
TTITLE5=Talkin' Loud And Sayin' Nothing Pts. 1 and 2
TTITLE6=There It Is
TTITLE7=Get On The Good Foot
TTITLE8=I Got Ants In My Pants, Pt. 1
TTITLE9=The Payback, Pts. 1 and 2
TTITLE10=My Thang
TTITLE11=Papa Don't Take No Mess, Pt. 1
EXTD=
EXTT0=
EXTT1=
EXTT2=
EXTT3=
EXTT4=
EXTT5=
EXTT6=
EXTT7=
EXTT8=
EXTT9=
EXTT10=
EXTT11=
PLAYORDER=
